<?xml version="1.0" encoding="utf-8"?>
<!-- Generator: Adobe Illustrator 24.1.3, SVG Export Plug-In . SVG Version: 6.00 Build 0)  -->
<svg version="1.1" xmlns="http://www.w3.org/2000/svg" xmlns:xlink="http://www.w3.org/1999/xlink" x="0px" y="0px"
	 viewBox="0 0 1920 1080" style="enable-background:new 0 0 1920 1080;" xml:space="preserve">
<style type="text/css">
	.st0{fill:#F2EEFF;}
	.st1{fill:#FFFFFF;}
	.st2{fill:#E6DDFE;}
	.st3{fill:#D2C1FE;}
	.st4{fill:#EAA926;}
	.st5{fill:#F7BF4F;}
	.st6{fill:#FFC829;}
	.st7{fill:#F8FAFC;}
	.st8{font-family:'Cocogoose';}
	.st9{font-size:37.1223px;}
	.st10{fill:#9DBAF5;}
	.st11{fill:#C8D7FA;}
	.st12{fill:#38437E;}
	.st13{fill:#7492CC;}
	.st14{opacity:0.52;}
	.st15{fill:#5F4071;}
	.st16{opacity:0.35;}
	.st17{fill:#F0F0F0;}
	.st18{fill:#ECB64B;}
	.st19{fill:#4C5FC0;}
	.st20{font-size:61.2904px;}
	.st21{fill:#A3C658;}
	.st22{fill:none;stroke:#365650;stroke-width:0.75;stroke-miterlimit:10;}
	.st23{fill:#C7D166;}
	.st24{fill:#B8BC58;}
	.st25{fill:#FC9B88;}
	.st26{fill:none;stroke:#FFFFFF;stroke-width:3;stroke-miterlimit:10;}
	.st27{fill:#FFC648;stroke:#AF791B;stroke-miterlimit:10;}
	.st28{fill:#EAA307;stroke:#AF791B;stroke-miterlimit:10;}
	.st29{fill:#FFC022;stroke:#AF791B;stroke-miterlimit:10;}
	.st30{fill:#8A72D2;}
	.st31{fill:#7A5FC6;}
	.st32{fill-rule:evenodd;clip-rule:evenodd;fill:#A0BF40;}
	.st33{fill-rule:evenodd;clip-rule:evenodd;fill:none;stroke:#365650;stroke-width:0.75;stroke-miterlimit:10;}
	.st34{fill-rule:evenodd;clip-rule:evenodd;fill:#A7DB56;}
	.st35{fill:#A0A0EA;}
	.st36{fill:#2E3849;}
	.st37{fill:none;stroke:#404459;stroke-miterlimit:10;}
	.st38{fill:#FFC84D;}
	.st39{fill:#F9B391;}
	.st40{fill:none;stroke:#AA6F30;stroke-width:2;stroke-miterlimit:10;}
	.st41{fill:none;stroke:#9D6F2A;stroke-width:1.6;stroke-miterlimit:10;}
	.st42{fill:#343A4A;}
	.st43{fill:#FFB584;}
	.st44{fill:#515A8D;}
	.st45{fill:none;stroke:#252F60;stroke-miterlimit:10;}
	.st46{fill:#3B4350;}
	.st47{fill:none;stroke:#BFBEE5;stroke-miterlimit:10;}
	.st48{fill:#DC8352;}
	.st49{fill:#293547;}
	.st50{fill:none;stroke:#FFFFFF;stroke-miterlimit:10;}
	.st51{opacity:0.23;fill:#FFFFFF;}
	.st52{fill:#FFB584;stroke:#DC8F5B;stroke-miterlimit:10;}
	.st53{fill:none;stroke:#DC8F5B;stroke-miterlimit:10;}
	.st54{fill:#FFB584;stroke:#D58854;stroke-miterlimit:10;}
	.st55{fill:#3D2E2C;}
	.st56{fill:none;stroke:#D27355;stroke-width:0.75;stroke-miterlimit:10;}
	.st57{fill:#FFF9F4;}
	.st58{fill:#ECE7E0;}
	.st59{fill:none;stroke:#F27043;stroke-miterlimit:10;}
	.st60{fill-rule:evenodd;clip-rule:evenodd;fill:#FFFFFF;stroke:#B5C0CB;stroke-miterlimit:10;}
	.st61{fill-rule:evenodd;clip-rule:evenodd;fill:#807FBC;}
</style>
<g id="Bg">
	<g>
		<rect x="-9.09" y="-6.21" class="st0" width="1973.95" height="1087.93"/>
		<path class="st1" d="M1406.16-6.21c5.46,5.73,11.29,11.02,17.34,15.77c29.88,23.44,65.57,39.42,102.96,46.09
			c52.54,9.37,106.46,0.49,159.82,1.55c11.42,0.23,23.31,1.04,33.23,6.72c21.69,12.4,25.29,41.51,27.59,66.39
			c4.34,47.12,12.9,94.36,32,137.65c19.1,43.29,49.46,82.63,90.32,106.49c28.78,16.81,62.1,25.28,95.45,25.36V-6.21H1406.16z"/>
		<circle class="st1" cx="1666" cy="158.36" r="39.53"/>
		<path class="st1" d="M-9.09-6.21v402.63c47.62-3.33,93.12-32.22,120.78-71.98c33.27-47.82,43.6-108.6,40.21-166.76
			c-1.38-23.76-4.21-50.04,10.12-69.04c7.02-9.31,17.43-15.57,28.32-19.73c44.69-17.09,94.22-1.33,141.28,7.32
			c57.89,10.64,118.35,10.04,174.88-6.36C554.73,55.88,599.93,30,634.52-6.21H-9.09z"/>
		<circle class="st1" cx="241.28" cy="143.04" r="42.01"/>
		<path class="st2" d="M379.82,949.05c-83.15-101.94-133.33-206.76-154.06-331.1c-14.11-84.63-3.87-218.2,49.83-289.37
			c73.42-97.32,226.37-129.21,354.49-99.97c40.7,9.29,80.29,23.83,122.2,26.71c73.09,5.02,142.36-25.64,209.54-51.6
			c83.78-32.38,171.5-58.74,262.44-67.25c90.93-8.51,185.68,1.67,266.78,39.02c145.48,66.99,227.94,214.84,234.72,359.73
			c6.78,144.89-52.06,286.64-131.33,413.6H379.74"/>
		<path class="st3" d="M1705.78,982.52c0,25.11-334.31,45.46-746.71,45.46s-741.87-20.83-746.71-45.46
			c-10.87-55.35,331.84-61.28,744.24-61.28S1705.78,937.06,1705.78,982.52z"/>
	</g>
</g>
<g id="Dollar_3_">
	<g>
		<g>
			<g>
				
					<ellipse transform="matrix(0.3951 -0.9187 0.9187 0.3951 549.092 1555.0226)" class="st4" cx="1455.28" cy="360.59" rx="48.51" ry="48.51"/>
				
					<ellipse transform="matrix(0.3627 -0.9319 0.9319 0.3627 591.4593 1586.012)" class="st5" cx="1455.28" cy="360.59" rx="39.65" ry="39.65"/>
			</g>
			<g>
				<path class="st1" d="M1449.68,380.49l-2.69,5.79l-5.17-2.4l2.62-5.64c-4.98-2.69-9.15-6.57-10.96-10.11l5.77-4.99
					c1.7,3.11,4.77,6.24,8.33,8.33l4.01-8.64c-5.09-4.06-10.62-8.95-7.19-16.35c2.54-5.48,8.71-8.34,17.32-5.48l2.66-5.74l5.17,2.4
					l-2.62,5.64c3.74,2.11,7.03,4.9,9.04,8.03l-5.54,5.16c-1.94-2.72-4.22-4.85-6.66-6.36l-4.08,8.79
					c5.12,4.01,10.54,8.85,7.15,16.14C1464.35,380.45,1458.26,383.28,1449.68,380.49z M1455.12,355.23l3.41-7.34
					c-3.03-0.65-4.81,0.34-5.61,2.05C1452.09,351.75,1453.18,353.45,1455.12,355.23z M1458.23,371.83c0.84-1.81-0.2-3.49-2.07-5.3
					l-3.31,7.14C1455.7,374.3,1457.46,373.48,1458.23,371.83z"/>
			</g>
		</g>
	</g>
</g>
<g id="Sale">
	<g>
		<path class="st6" d="M1612.34,645h-109.68c-7.54,0-13.66-6.12-13.66-13.66v-50.68c0-7.54,6.12-13.66,13.66-13.66h109.68
			c7.54,0,13.66,6.12,13.66,13.66v50.68C1626,638.88,1619.88,645,1612.34,645z"/>
		<g>
			<text transform="matrix(1 0 0 1 1507.479 616.7881)" class="st7 st8 st9">SALE</text>
		</g>
	</g>
</g>
<g id="Home">
	<g>
		<g>
			<polygon class="st10" points="1425.9,475.05 1425.9,921.82 859.68,917.16 851.93,471.95 1121.85,211.33 			"/>
		</g>
		<g>
			<polygon class="st11" points="1134.26,475.05 986.11,347.07 844.17,475.05 844.17,914.06 1134.26,914.06 			"/>
		</g>
		<g>
			<polygon class="st12" points="1452.8,521.41 1122.13,226.14 816.02,521.13 800.95,505.49 1121.57,196.52 1467.26,505.21 			"/>
		</g>
		<g>
			
				<rect x="1068.72" y="306.67" transform="matrix(0.6836 -0.7299 0.7299 0.6836 28.1992 923.8697)" class="st12" width="21.72" height="245.48"/>
		</g>
		<g>
			<rect x="840.29" y="841.93" class="st13" width="588.71" height="79.89"/>
		</g>
		<g class="st14">
			<g>
				<rect x="1138.14" y="841.93" class="st15" width="290.87" height="79.89"/>
			</g>
		</g>
		<g>
			<g>
				<g>
					<rect x="1007.25" y="662.24" class="st11" width="82.74" height="124.1"/>
				</g>
				<g class="st16">
					<path class="st1" d="M1091.22,665.17v-2.93h-17.17c-10.01,8.97-20.02,17.93-30.03,26.9c-6.15,5.51-12.34,11.06-17.42,17.58
						c-0.86,1.11-1.73,2.36-1.71,3.76c0.06,4.26,6.89,4.42,9.27,7.96c2.26,3.36-0.5,7.74-3.14,10.81
						c-7.51,8.72-15.02,17.43-22.53,26.15v30.95h30.37c13.48-17.59,26.36-35.64,36.42-55.34c0.95-1.85,1.88-3.79,1.95-5.86
						c0.19-6.09-6.5-9.6-11.28-13.39c-1.5-1.19-2.95-2.68-3.21-4.57c-0.27-1.98,0.84-3.86,1.92-5.55
						C1072.79,688.97,1081.67,676.79,1091.22,665.17z"/>
				</g>
				<g>
					<path class="st1" d="M1093.09,789.44h-88.94V659.13h88.94V789.44z M1010.35,783.24h76.53v-117.9h-76.53V783.24z"/>
				</g>
			</g>
			<g>
				<rect x="1045.51" y="663.14" class="st1" width="6.21" height="122.55"/>
			</g>
		</g>
		<g>
			<g>
				<g>
					<rect x="940.35" y="485.08" class="st11" width="82.74" height="124.1"/>
				</g>
				<g class="st16">
					<path class="st1" d="M1024.32,488.01v-2.93h-17.17c-10.01,8.97-20.02,17.93-30.03,26.9c-6.15,5.51-12.34,11.06-17.42,17.58
						c-0.86,1.11-1.73,2.36-1.71,3.76c0.06,4.26,6.89,4.42,9.27,7.96c2.26,3.36-0.5,7.74-3.14,10.81
						c-7.51,8.72-15.02,17.43-22.53,26.15v30.95h30.37c13.48-17.59,26.36-35.64,36.42-55.34c0.95-1.85,1.88-3.79,1.95-5.86
						c0.19-6.09-6.5-9.6-11.28-13.39c-1.5-1.19-2.95-2.68-3.21-4.57c-0.27-1.98,0.84-3.86,1.92-5.55
						C1005.89,511.81,1014.77,499.63,1024.32,488.01z"/>
				</g>
				<g>
					<path class="st1" d="M1026.19,612.28h-88.94V481.98h88.94V612.28z M943.45,606.08h76.53v-117.9h-76.53V606.08z"/>
				</g>
			</g>
			<g>
				<rect x="978.61" y="485.98" class="st1" width="6.21" height="122.55"/>
			</g>
		</g>
		<g>
			<g>
				<g>
					<rect x="1232.72" y="485.08" class="st11" width="82.74" height="124.1"/>
				</g>
				<g class="st16">
					<path class="st1" d="M1316.69,488.01v-2.93h-17.17c-10.01,8.97-20.02,17.93-30.03,26.9c-6.15,5.51-12.34,11.06-17.42,17.58
						c-0.86,1.11-1.73,2.36-1.71,3.76c0.06,4.26,6.89,4.42,9.27,7.96c2.26,3.36-0.5,7.74-3.14,10.81
						c-7.51,8.72-15.02,17.43-22.53,26.15v30.95h30.37c13.48-17.59,26.36-35.64,36.42-55.34c0.95-1.85,1.88-3.79,1.95-5.86
						c0.19-6.09-6.5-9.6-11.28-13.39c-1.5-1.19-2.95-2.68-3.21-4.57c-0.27-1.98,0.84-3.86,1.92-5.55
						C1298.26,511.81,1307.14,499.63,1316.69,488.01z"/>
				</g>
				<g>
					<path class="st1" d="M1318.56,612.28h-88.94V481.98h88.94V612.28z M1235.82,606.08h76.53v-117.9h-76.53V606.08z"/>
				</g>
			</g>
			<g>
				<rect x="1270.99" y="485.98" class="st1" width="6.21" height="122.55"/>
			</g>
		</g>
		<g>
			<g>
				<g>
					<rect x="881.35" y="662.24" class="st11" width="82.74" height="124.1"/>
				</g>
				<g class="st16">
					<path class="st1" d="M965.32,665.17v-2.93h-17.17c-10.01,8.97-20.02,17.93-30.03,26.9c-6.15,5.51-12.34,11.06-17.42,17.58
						c-0.86,1.11-1.73,2.36-1.71,3.76c0.06,4.26,6.89,4.42,9.27,7.96c2.26,3.36-0.5,7.74-3.14,10.81
						c-7.51,8.72-15.02,17.43-22.53,26.15v30.95h30.37c13.48-17.59,26.36-35.64,36.42-55.34c0.95-1.85,1.88-3.79,1.95-5.86
						c0.19-6.09-6.5-9.6-11.28-13.39c-1.5-1.19-2.95-2.68-3.21-4.57c-0.27-1.98,0.84-3.86,1.92-5.55
						C946.89,688.97,955.77,676.79,965.32,665.17z"/>
				</g>
				<g>
					<path class="st17" d="M967.19,789.44h-88.94V659.13h88.94V789.44z M884.45,783.24h76.53v-117.9h-76.53V783.24z"/>
				</g>
			</g>
			<g>
				<rect x="919.61" y="663.14" class="st17" width="6.21" height="122.55"/>
			</g>
		</g>
		<g>
			<g>
				<rect x="1218.24" y="659.72" class="st12" width="116.86" height="228.56"/>
			</g>
		</g>
		<g>
			<g>
				<circle class="st11" cx="1128.05" cy="356.63" r="40.85"/>
			</g>
			<g>
				<path class="st1" d="M1128.05,400.59c-24.24,0-43.95-19.72-43.95-43.95c0-24.24,19.72-43.95,43.95-43.95
					c24.24,0,43.95,19.72,43.95,43.95C1172.01,380.87,1152.29,400.59,1128.05,400.59z M1128.05,318.89
					c-20.81,0-37.75,16.93-37.75,37.75c0,20.82,16.93,37.75,37.75,37.75c20.81,0,37.75-16.93,37.75-37.75
					C1165.8,335.82,1148.87,318.89,1128.05,318.89z"/>
			</g>
			<g>
				<rect x="1124.43" y="315.78" class="st1" width="6.46" height="82.22"/>
			</g>
			<g>
				
					<rect x="1126.18" y="317.66" transform="matrix(-1.836970e-16 1 -1 -1.836970e-16 1487.5958 -771.2279)" class="st1" width="6.46" height="81.05"/>
			</g>
		</g>
		<g>
			<rect x="1169.89" y="904.75" class="st1" width="213.56" height="17.32"/>
		</g>
		<g>
			<rect x="1183.34" y="887.69" class="st1" width="186.67" height="17.32"/>
		</g>
		<g>
			<path class="st11" d="M1274.97,678.27L1274.97,678.27c-14.1,0-25.53,11.43-25.53,25.53v79.96h51.06V703.8
				C1300.51,689.7,1289.08,678.27,1274.97,678.27z"/>
		</g>
		<g>
			<rect x="1271.35" y="675.94" class="st12" width="5.62" height="110.14"/>
		</g>
		<g>
			<rect x="1248.28" y="731.79" class="st12" width="52.94" height="4.65"/>
		</g>
		<g>
			<path class="st18" d="M1238.45,793.71c0-2.5-2.03-4.52-4.52-4.52s-4.52,2.03-4.52,4.52c0,2.5,2.03,4.52,4.52,4.52
				S1238.45,796.21,1238.45,793.71z"/>
		</g>
	</g>
	<line class="st12" x1="767.06" y1="919.92" x2="1642.35" y2="919.92"/>
</g>
<g id="_x25_">
	<g>
		<path class="st19" d="M834.21,292.72h-87.95c-6.22,0-11.27-5.04-11.27-11.27v-59.19c0-6.22,5.04-11.27,11.27-11.27h87.95
			c6.22,0,11.27,5.04,11.27,11.27v59.19C845.48,287.68,840.43,292.72,834.21,292.72z"/>
		<g>
			<text transform="matrix(1 0 0 1 761.2427 271.1655)" class="st7 st8 st20">%</text>
		</g>
	</g>
</g>
<g id="Dollar_2_">
	<g>
		<g>
			<g>
				
					<ellipse transform="matrix(0.3951 -0.9187 0.9187 0.3951 -163.1177 563.4594)" class="st4" cx="346.28" cy="405.59" rx="48.51" ry="48.51"/>
				
					<ellipse transform="matrix(0.3627 -0.9319 0.9319 0.3627 -157.2789 581.1942)" class="st5" cx="346.28" cy="405.59" rx="39.65" ry="39.65"/>
			</g>
			<g>
				<path class="st1" d="M340.68,425.49l-2.69,5.79l-5.17-2.4l2.62-5.64c-4.98-2.69-9.15-6.57-10.96-10.11l5.77-4.99
					c1.7,3.11,4.77,6.24,8.33,8.33l4.01-8.64c-5.09-4.06-10.62-8.95-7.19-16.35c2.54-5.48,8.71-8.34,17.32-5.48l2.66-5.74l5.17,2.4
					l-2.62,5.64c3.74,2.11,7.03,4.9,9.04,8.03l-5.54,5.16c-1.94-2.72-4.22-4.85-6.66-6.36l-4.08,8.79
					c5.12,4.01,10.54,8.85,7.15,16.14C355.35,425.45,349.26,428.28,340.68,425.49z M346.12,400.23l3.41-7.34
					c-3.03-0.65-4.81,0.34-5.61,2.05C343.09,396.75,344.18,398.45,346.12,400.23z M349.23,416.83c0.84-1.81-0.2-3.49-2.07-5.3
					l-3.31,7.14C346.7,419.3,348.46,418.48,349.23,416.83z"/>
			</g>
		</g>
	</g>
</g>
<g id="Plant_1_">
	<g>
		<g>
			<path class="st21" d="M1418.92,728.1c-13.11-35.48-9.01-59.34,5.01-64.52c14.02-5.18,32.64,10.28,45.75,45.77
				c13.11,35.48,15.74,77.56,1.72,82.74C1457.38,797.26,1432.03,763.58,1418.92,728.1z"/>
			<path class="st22" d="M1438.96,698.62c15.58,45.29,37.29,86.12,46.7,163.98"/>
		</g>
		<g>
			<path class="st23" d="M1482.44,725.58c13.27-30.22,33.33-41.39,49.01-34.5c15.68,6.88,21.04,29.21,7.77,59.43
				c-13.27,30.22-40.15,56.9-55.83,50.02C1467.72,793.64,1469.17,755.8,1482.44,725.58z"/>
			<path class="st22" d="M1519.49,720.07c-10.59,21.76-21.2,43.58-29.03,66.48c-7.82,22.9-12.82,47.02-11.81,71.19"/>
		</g>
		<g>
			<path class="st23" d="M1379.74,788.72c-24.74-18.75-31.13-38.79-22.11-50.7c9.02-11.91,30.05-11.18,54.79,7.56
				c24.74,18.75,43.84,48.41,34.81,60.32C1438.21,817.82,1404.49,807.47,1379.74,788.72z"/>
			<path class="st22" d="M1476.54,847.52c-9.52-23.21-41.21-56.47-90.82-90.58"/>
		</g>
		<g>
			<path class="st21" d="M1548.14,758.77c23.3-16.12,41.86-16.89,48.83-6.82c6.97,10.07-0.28,27.17-23.58,43.3
				c-23.3,16.12-53.82,25.17-60.79,15.09C1505.63,800.27,1524.84,774.89,1548.14,758.77z"/>
			<path class="st22" d="M1580.47,761.3c-40.02,22.61-65.06,43.33-92.82,82.16"/>
		</g>
		<g>
			<path class="st23" d="M1434.3,881.8c-9.99,21.82-25.14,29.51-36.99,24.08c-11.86-5.43-15.93-21.92-5.94-43.74
				c9.99-21.82,30.27-40.71,42.12-35.28C1445.34,832.29,1444.29,859.98,1434.3,881.8z"/>
			<path class="st22" d="M1410.97,874.24c6.86-21.31,24.1-76.57,44.24-49.93"/>
		</g>
		<g>
			<path class="st24" d="M1569.02,862.7c6.39,17.01,2.43,29.25-6.81,32.72c-9.24,3.47-20.28-3.14-26.66-20.15
				c-6.39-17.01-5.71-37.99,3.53-41.46C1548.32,830.34,1562.63,845.68,1569.02,862.7z"/>
			<path class="st22" d="M1511.58,824.31c7.34-19.77,22.31-7.79,42.71,45.12"/>
		</g>
		<g>
			<g>
				<polygon class="st25" points="1537.4,941.77 1426.18,941.77 1439.97,824.31 1524.47,824.31 				"/>
			</g>
			<g>
				<line class="st26" x1="1438.96" y1="838.74" x2="1524.47" y2="838.74"/>
				<line class="st26" x1="1438.96" y1="832.2" x2="1523.21" y2="832.2"/>
			</g>
		</g>
	</g>
</g>
<g id="Dollar_1_">
	<g>
		<g>
			<g>
				<g>
					<g>
						<path class="st27" d="M1009.88,950.1c0,3.97,23.49,7.2,52.45,7.2c28.97,0,52.45-3.23,52.45-7.2c0-0.08-0.01-0.14-0.02-0.22
							v-19.46h-104.84v19.42C1009.9,949.93,1009.88,950.01,1009.88,950.1z"/>
					</g>
				</g>
			</g>
		</g>
		<g>
			<g>
				<g>
					<g>
						<path class="st28" d="M1009.89,930.6c0,3.98,23.48,7.2,52.45,7.2c28.97,0,52.45-3.22,52.45-7.2c0-3.98-23.48-7.2-52.45-7.2
							S1009.89,926.63,1009.89,930.6z"/>
					</g>
				</g>
			</g>
		</g>
	</g>
	<g>
		<g>
			<g>
				<g>
					<g>
						<path class="st27" d="M1040.48,919.96c0,3.97,23.49,7.2,52.45,7.2c28.97,0,52.45-3.23,52.45-7.2c0-0.08-0.01-0.14-0.02-0.22
							v-19.46l-104.84,0v19.42C1040.5,919.79,1040.48,919.87,1040.48,919.96z"/>
					</g>
				</g>
			</g>
		</g>
		<g>
			<g>
				<g>
					<g>
						<ellipse class="st28" cx="1092.94" cy="900.47" rx="52.45" ry="7.2"/>
					</g>
				</g>
			</g>
		</g>
	</g>
	<g>
		<g>
			<g>
				<g>
					<g>
						<path class="st27" d="M1021.12,901.46c0,3.97,23.49,7.2,52.45,7.2c28.97,0,52.45-3.23,52.45-7.2c0-0.08-0.01-0.14-0.02-0.22
							v-19.46l-104.84,0v19.41C1021.13,901.29,1021.12,901.36,1021.12,901.46z"/>
					</g>
				</g>
			</g>
		</g>
		<g>
			<g>
				<g>
					<g>
						<ellipse class="st28" cx="1073.57" cy="881.96" rx="52.45" ry="7.2"/>
					</g>
				</g>
			</g>
		</g>
	</g>
	<g>
		<g>
			<g>
				<g>
					<g>
						<path class="st27" d="M1028.21,878.47c0,3.97,23.49,7.2,52.45,7.2c28.97,0,52.45-3.23,52.45-7.2c0-0.08-0.01-0.14-0.02-0.22
							v-19.46l-104.84,0v19.41C1028.22,878.3,1028.21,878.38,1028.21,878.47z"/>
					</g>
				</g>
			</g>
		</g>
		<g>
			<g>
				<g>
					<g>
						<ellipse class="st28" cx="1080.66" cy="858.97" rx="52.45" ry="7.2"/>
					</g>
				</g>
			</g>
		</g>
		<g>
			<g>
				<g>
					<g>
						<path class="st29" d="M1037.94,858.97c0,2.67,19.13,4.84,42.72,4.84c23.59,0,42.72-2.17,42.72-4.84
							c0-2.67-19.13-4.84-42.72-4.84C1057.07,854.13,1037.94,856.3,1037.94,858.97z"/>
					</g>
				</g>
			</g>
		</g>
	</g>
	<g>
		<g>
			<g>
				
					<ellipse transform="matrix(0.3951 -0.9187 0.9187 0.3951 -139.4388 1605.4181)" class="st4" cx="1149.28" cy="908.59" rx="48.51" ry="48.51"/>
				
					<ellipse transform="matrix(0.3627 -0.9319 0.9319 0.3627 -114.2559 1650.1031)" class="st5" cx="1149.28" cy="908.59" rx="39.65" ry="39.65"/>
			</g>
			<g>
				<path class="st1" d="M1143.68,928.49l-2.69,5.79l-5.17-2.4l2.62-5.64c-4.98-2.69-9.15-6.57-10.96-10.11l5.77-4.99
					c1.7,3.11,4.77,6.24,8.33,8.33l4.01-8.64c-5.09-4.06-10.62-8.95-7.19-16.35c2.54-5.48,8.71-8.34,17.32-5.48l2.66-5.74l5.17,2.4
					l-2.62,5.64c3.74,2.11,7.03,4.9,9.04,8.03l-5.54,5.16c-1.94-2.72-4.22-4.85-6.66-6.36l-4.08,8.79
					c5.12,4.01,10.54,8.85,7.15,16.14C1158.35,928.45,1152.26,931.28,1143.68,928.49z M1149.12,903.23l3.41-7.34
					c-3.03-0.65-4.81,0.34-5.61,2.05C1146.09,899.75,1147.18,901.45,1149.12,903.23z M1152.23,919.83c0.84-1.81-0.2-3.49-2.07-5.3
					l-3.31,7.14C1149.7,922.3,1151.46,921.48,1152.23,919.83z"/>
			</g>
		</g>
	</g>
</g>
<g id="Dollar">
	<g>
		<g>
			<g>
				
					<ellipse transform="matrix(0.3951 -0.9187 0.9187 0.3951 -229.2587 1413.0175)" class="st4" cx="958.28" cy="880.59" rx="48.51" ry="48.51"/>
				
					<ellipse transform="matrix(0.3627 -0.9319 0.9319 0.3627 -209.8927 1454.2614)" class="st5" cx="958.28" cy="880.59" rx="39.65" ry="39.65"/>
			</g>
			<g>
				<path class="st1" d="M952.68,900.49l-2.69,5.79l-5.17-2.4l2.62-5.64c-4.98-2.69-9.15-6.57-10.96-10.11l5.77-4.99
					c1.7,3.11,4.77,6.24,8.33,8.33l4.01-8.64c-5.09-4.06-10.62-8.95-7.19-16.35c2.54-5.48,8.71-8.34,17.32-5.48l2.66-5.74l5.17,2.4
					l-2.62,5.64c3.74,2.11,7.03,4.9,9.04,8.03l-5.54,5.16c-1.94-2.72-4.22-4.85-6.66-6.36l-4.08,8.79
					c5.12,4.01,10.54,8.85,7.15,16.14C967.35,900.45,961.26,903.28,952.68,900.49z M958.12,875.23l3.41-7.34
					c-3.03-0.65-4.81,0.34-5.61,2.05C955.09,871.75,956.18,873.45,958.12,875.23z M961.23,891.83c0.84-1.81-0.2-3.49-2.07-5.3
					l-3.31,7.14C958.7,894.3,960.46,893.48,961.23,891.83z"/>
			</g>
		</g>
	</g>
</g>
<g id="Sofa">
	<path class="st30" d="M356.78,577.52c-29.09,50.9-40.27,110.47-40.95,169.09c-0.5,43.49,5.14,88.82,28.79,125.33
		c24.05,37.13,64.62,61.25,107.2,73.22s87.44,12.91,131.66,11.92c66.41-1.49,132.72-7.15,198.41-16.95
		c22.67-3.38,46.27-7.67,64.49-21.58c18.62-14.21,29.07-36.56,36.72-58.71c13.21-38.24,20.05-80.69,6.75-118.89
		c-15.96-45.81-57.93-77.57-101.26-99.38c-43.33-21.81-90.33-36.69-130.71-63.56c-49.75-33.11-98.09-109.03-164.04-108.08
		C439.36,470.71,381.41,534.41,356.78,577.52z"/>
	<path class="st31" d="M404.49,660.74c-4.4,44.58,6.8,98.79,37.97,124.14c21,17.08,45.97,17.37,69.32,17.09
		c70.02-0.86,140.29-1.75,208.53-14.9c20.53-3.96,41.42-9.32,57.91-24.29c16.49-14.97,27.78-41.68,23.13-69.46
		c-7-41.82-43.21-64.75-74.14-80.08c-49.69-24.63-99.38-49.27-149.07-73.9c-25.53-12.65-51.59-25.46-77.93-27.32
		C433.15,507.3,411.91,585.62,404.49,660.74z"/>
</g>
<g id="Plant">
	<g>
		<g>
			<g>
				<path class="st32" d="M218.13,624.58c8.71,39.51,69.59,59.34,80.16,70.53C316.01,658.55,254.98,612.43,218.13,624.58z"/>
			</g>
			<path class="st33" d="M242,638.9c11.3,1.95,20.42,10.01,28.89,17.73c15.23,13.88,30.99,28.55,38.03,47.92"/>
		</g>
		<g>
			<path class="st32" d="M353.13,519.81C353.13,519.81,353.13,519.81,353.13,519.81C353.13,519.81,353.13,519.81,353.13,519.81
				c-0.67,0.09-1.34,0.24-2.01,0.42c-45.89,10.57-82.86,94.03-42.91,122.58C354.92,610.14,341.59,541.91,353.13,519.81
				C353.13,519.81,353.13,519.81,353.13,519.81z"/>
			<path class="st33" d="M331.71,539.2c-19.05,38.36-21.18,82.61-22.95,125.4"/>
		</g>
		<g>
			<g>
				<path class="st34" d="M257.07,582.05c-4.87,29.44,38.54,59.61,42.71,70.17C311.3,620.56,285.63,583.83,257.07,582.05z"/>
			</g>
			<path class="st33" d="M270.1,599.83c13.47,13.02,35.92,38.48,34,94.13"/>
		</g>
		<g>
			<path class="st32" d="M312.75,730.56c52.23,22.82,100.52-39.38,128.37-25.81C409.43,669.27,316.33,680.87,312.75,730.56z"/>
			<path class="st33" d="M408.3,695.11c0,0-85.01-1.14-99.88,53.78"/>
		</g>
		<g>
			<g>
				<path class="st32" d="M311.86,699.12c62.38-13.17,53.19-80.43,78.79-94.63C346.5,597.2,285.16,660.62,311.86,699.12z"/>
			</g>
			<path class="st33" d="M367.22,616.91c-27.88,18.42-60.24,73.21-63.12,117.35"/>
		</g>
		<g>
			<g>
				<path class="st32" d="M314.21,770.71c39.63,16.19,94.11-9.85,104.87-20.05C393.51,721.48,317.51,730.22,314.21,770.71z"/>
			</g>
			<path class="st33" d="M376.89,752.06c-17.07-3.11-35.42-1.09-50.34,7.77c-14.91,8.86-25.81,25.06-26.19,42.41"/>
		</g>
		<g>
			<g>
				<path class="st34" d="M374.21,661.31c-38.75,1.9-83.24,45.24-69.67,93.19C310.38,740.27,380.27,701.32,374.21,661.31z"/>
			</g>
			<path class="st33" d="M363.8,669.91c-49.76,35.29-60.7,88.16-64.24,115.82"/>
		</g>
		<g>
			<g>
				<path class="st32" d="M214.76,667.71c16.78,16.95,11.73,31.15,28.24,51.5c14.13,17.42,32.92,33.58,54.97,39.26
					C324.63,708.83,259.38,650.06,214.76,667.71z"/>
			</g>
			<path class="st33" d="M236.63,673.42c11.69,3.2,21.14,11.78,28.91,21.08c24.24,29,29.94,65.53,34.98,102.99"/>
		</g>
		<g>
			<path class="st34" d="M177.89,708.56c24.51,11.65,79.04,44.96,108.15,38.56C289.2,703.55,209.87,681.76,177.89,708.56z"/>
			<path class="st33" d="M218.13,711.6c28.23,6.44,76.4,27.13,78.29,62"/>
		</g>
		<g>
			<g>
				<path class="st32" d="M169.43,751.92C169.43,751.92,169.43,751.92,169.43,751.92C169.43,751.92,169.43,751.92,169.43,751.92
					C169.43,751.92,169.43,751.92,169.43,751.92C169.43,751.92,169.43,751.92,169.43,751.92c23.4,1.84,71.18,46.57,120.59,25.62
					C287.17,730.72,199.64,718.84,169.43,751.92z"/>
			</g>
			<path class="st33" d="M195.28,749.1c14.14-0.31,28.37-0.61,42.36,1.46c16.05,2.37,31.82,7.98,44.81,17.72
				c12.98,9.73,15.58,17.86,18.97,33.73"/>
		</g>
		<g>
			<g>
				<polygon class="st35" points="352.56,968.36 237.81,968.36 252.04,789.32 339.22,789.32 				"/>
			</g>
			<g>
				<line class="st26" x1="251" y1="813.68" x2="339.22" y2="813.68"/>
				<line class="st26" x1="251" y1="802.63" x2="337.92" y2="802.63"/>
			</g>
		</g>
	</g>
</g>
<g id="HAir">
	<g>
		<path class="st36" d="M576.71,389.82c1.24,8.22,1.28,16.63,0.07,24.86c-1.83,12.39-6.39,24.18-9.92,36.2
			c-2.42,8.22-4.37,16.62-7.72,24.5c-3.35,7.89-8.25,15.38-15.35,20.18c-7.29,4.93-16.41,6.64-25.2,6.16
			c-8.79-0.47-17.34-3-25.63-5.95c-12.26-4.37-24.53-10-33.25-19.65c-7.52-8.33-11.95-19.56-11.4-30.76
			c0.55-11.21,6.27-22.2,15.55-28.51c11.61-7.89,28.05-8.6,36.8-19.58c5.99-7.52,6.7-17.97,11.41-26.35
			c4.8-8.53,13.7-14.41,23.28-16.44c7.76-1.64,16.02-1.03,23.51,1.54c7.78,2.67,9.81,7.52,12.77,14.97
			C574.04,377.04,575.74,383.38,576.71,389.82z"/>
		<path class="st37" d="M514.27,381.7c-3.22,10.93-8.48,21.92-17.95,28.25c-8.72,5.83-19.94,6.99-28.58,12.93
			c-6.72,4.62-11.44,12.06-12.75,20.11c-1.31,8.05,0.81,16.6,5.72,23.12"/>
		<path class="st37" d="M510.75,404.87c-2.54,10.07-8.49,19.24-16.63,25.69c-4.48,3.55-9.67,6.35-13.27,10.79
			c-3.87,4.78-5.52,10.99-6.32,17.08c-0.82,6.26-0.61,13.34,3.74,17.93"/>
		<path class="st37" d="M519.63,413.95c0.03,11.41-8.06,21-12.42,31.54c-4.75,11.49-5.02,24.77-0.72,36.43"/>
	</g>
	<g>
		<path class="st36" d="M604.97,382.62c-1.79,6.76-5.28,13.52-3.88,20.37c0.94,4.57,3.95,8.39,6.6,12.23
			c7.38,10.7,12.63,23.16,13.28,36.14c0.65,12.98-3.66,26.49-13.02,35.52c-6.93,6.69-16.25,10.62-25.78,12.02
			c-9.54,1.4-19.3,0.38-28.68-1.85c-8.38-2-16.99-5.3-22.25-12.12c-2.66-3.46-4.28-7.61-5.54-11.79
			c-6.29-20.97-4.04-43.87,3.29-64.5c5.49-15.44,14.15-30.31,27.51-39.8c10.14-7.21,23.31-10.83,35.66-8.54
			C605.57,362.78,608.51,369.23,604.97,382.62z"/>
		<path class="st37" d="M597.23,400.28c-0.79,11.52,8.07,21.12,12.98,31.58c5.58,11.87,6.05,26.04,1.28,38.26
			c-2.04,5.22-5.55,10.52-10.99,11.85"/>
		<path class="st37" d="M588.22,418.59c6.39,11.47,9.68,24.99,7.33,37.9c-2.35,12.91-10.86,24.98-23.03,29.89"/>
	</g>
</g>
<g id="R_Arm">
	<path class="st38" d="M654.37,596.01c-5.51-0.72-31.58-18.44-37.13-23.11c-9.92-8.35-18.66-17.26-25.87-27.98
		c-4.76-7.07-13.62-16.1-17.76-23.64c-4.42-8.05,2.73-8.79-0.89-17.26c-2.15-5.03-10.61-17.9-1.77-20.12
		c7.5-1.88,16.08-15.55,22.49-12.67c13.54,6.09,35.52,29.65,41.76,36.3c19.79,21.09,30.95,30.99,50.25,51.58
		c7.94,26.87-5.28,39.05-33.29,36.9"/>
</g>
<g id="R_Hand">
	<g>
		<path class="st39" d="M755.42,488.82c12.74-4.43,14.48,17.15,13.14,18.55c-10.04,10.51-30.79,35.27-34.32,36.4
			c-4.53,1.45-23.41-21.17-21.98-24.95C713.86,514.57,754.94,488.99,755.42,488.82z"/>
		<path class="st38" d="M648.66,558.46c-2.43,1.61-5.55,6.62-6.57,9.44c-1.01,2.83-0.74,8.53,0.21,11.85
			c1.02,3.55,0.61,4.55,2.89,7.74c2.77,3.87,7.55,8.18,11.36,11.05c4.64,3.49,8.93,4.68,14.17,5.52c6.64,1.07,14.55-4.3,19.15-7.86
			c24.18-18.7,60.25-66.84,60.29-67.28c0.07-0.76-17.96-23.82-20.41-24.62c-2.44-0.79-43.34,29.17-57.46,38.51
			c-4.03,2.67-8.07,5.34-12.1,8.01C656.53,553.25,651.74,555.35,648.66,558.46z"/>
		<path class="st40" d="M721.28,509.9c-5.96,4.63-16.59,11.07-22.55,15.7c-2.3,1.79-4.61,3.57-7.11,5.09
			c-3.52,2.13-5.09,3.66-8.39,6.09"/>
		<path class="st40" d="M729.69,504.42c7.59,7.52,15.19,17.43,20.78,24.56"/>
		<path class="st40" d="M750.48,528.98c-17.19,23.3-41.78,50.91-64,69.41c0,0-6.22,4.66-8.05,3.94"/>
		<path class="st41" d="M683.14,536.44"/>
		<path class="st41" d="M681.76,538.78"/>
	</g>
</g>
<g id="R_Thigh">
	<g>
		<g>
			<path class="st42" d="M596.87,653.91c0,0,150.3,11.22,172.92,40c8.2,10.42,19.5,37.62,8.84,52.16
				c-10.66,14.54-35.52,7.4-39.23,7.89c-3.71,0.49-153.65,2.8-157.26-13.39C581.51,737.72,557.82,662.99,596.87,653.91z"/>
		</g>
	</g>
</g>
<g id="R_Leg">
	<g>
		<g>
			<path class="st43" d="M665.2,902.42l-53.5,72.05c0,0-27.47-21.34-23.65-29.21c3.82-7.87,38.19-77.97,38.19-77.97L665.2,902.42z"
				/>
		</g>
		<path class="st42" d="M707.95,718.69c0,0-29.68,26.6-31.5,34.07c-1.82,7.48-63.96,120.51-63.96,120.51s18.99,23.28,33.15,29.72
			c9.97,4.54,19.86,6.26,19.86,6.26s77.28-92.12,109.79-145.5c10.35-17,5.06-34.71,5.42-39.18
			C782.19,706.06,750.85,654.45,707.95,718.69z"/>
	</g>
</g>
<g id="R_Foot">
	<g>
		<path class="st43" d="M597.18,920.89c-5.81,9.52-24.62,52.55-21.27,62.27c0.99,2.87,2.74,5.33,4.47,7.76
			c4.71,6.61,9.41,13.21,14.12,19.82c2.42,3.4,4.93,6.88,8.56,8.97c2.72,1.56,5.9,2.25,9.05,2.87c11.38,2.23,23.79,3.69,34.98-1.5
			c0.68-0.32,1.4-0.69,1.82-1.32c1.03-1.54-0.26-3.32-1.56-4.38c-4.31-3.49-9.45-5.91-13.66-9.51
			c-12.55-10.75-14.49-29.48-20.76-45.03c-0.54-1.33-1.17-2.72-2.39-3.44c-0.91-0.54-2.04-0.65-3.14-0.75
			c-5.24-0.46-3.39-11.6-8.63-12.06"/>
		<path class="st44" d="M579.23,1031.96c0.09-1.5-0.05-25.44-2.8-29.79c-2.75-4.35-9.91-9.99-9.91-9.99l10.45-25.96
			c0,0,9.14,23.49,13.39,27.77c4.25,4.28,14.07,15.77,22.99,16.82c8.92,1.05,25.68-4.27,25.68-4.27s20.07,15.47,19.9,18.47
			c-0.17,3-4.84,6.23-4.84,6.23l-56.68-3.18l-9.48-17.49l-1.19,21.01L579.23,1031.96z"/>
		<g>
			<path class="st45" d="M587.01,1031.59c-0.05-6.25,0.22-12.53,0.82-18.82"/>
		</g>
	</g>
</g>
<g id="L_Body">
	<path class="st42" d="M475.07,644.28c0,0-17.17,58.87-14.05,82.55c3.12,23.68,12.34,27.64,24.97,31.22
		c12.63,3.57,137.37-13.89,146.75-35.02c6.47-14.57-11.91-33.84-20.06-49.72c-3.67-7.15,2.46-15.48,1.42-16.97
		c-3.33-4.8-13.87-15.96-15.6-18.87C596.77,634.55,475.07,644.28,475.07,644.28z"/>
</g>
<g id="L_Thigh">
	<g>
		<path class="st46" d="M451.87,768.39c1.39,2.83,23.4,14.49,43.36,13.81c40.44-1.37,180.62-7.02,191.65-6.56
			c35.42,1.5,45.66-53.63,42.93-64.85c-2.73-11.22-31.33-17.86-54.55-22.51c-19.77-3.96-108.22-5.8-107.15-6.39
			C568.88,681.47,409.52,682.59,451.87,768.39z"/>
		<path class="st47" d="M494.74,711.14c-2.1,13.79,6.96,27.47,18.8,34.51c11.84,7.05,25.92,8.74,39.56,9.56
			c26,1.56,92.15-1.39,117.81,3.21"/>
	</g>
</g>
<g id="Neck">
	<g>
		<g>
			<path class="st43" d="M531.04,416.65l-15.69,63.31l43.73,25.77l5.81-69.21c0,0,1.52-11.23-2.61-17.21
				C556.61,411.11,534.93,404.99,531.04,416.65z"/>
		</g>
		<g>
			<path class="st48" d="M563.44,460.3c0,0-13.28-10.15-16.46-18.73c-3.18-8.58-2.39-15.88-2.39-15.88l19.93,15.27L563.44,460.3z"/>
		</g>
	</g>
</g>
<g id="Face">
	<g>
		<path class="st49" d="M542.54,362.53c0.84-7.95-1.91-16.37-7.83-21.74c-5.92-5.37-15.02-7.24-22.31-3.97
			c-3.1,1.39-5.77,3.59-8.19,5.98c-3.74,3.7-7.04,8.07-8.4,13.16c-1.8,6.76,0.17,14.3,4.69,19.64c4.52,5.34,11.37,8.51,18.35,8.99"
			/>
		<path class="st37" d="M532.9,360.57c-0.05-3.02-0.55-6.03-1.47-8.91c-0.64-2.01-1.52-4-2.97-5.53c-2.09-2.21-5.2-3.26-8.24-3.28
			c-3.04-0.02-6.01,0.91-8.77,2.18"/>
		<path class="st37" d="M517.35,374.77c-2.91,1.33-6.45,0.61-9.1-1.19c-2.65-1.79-4.53-4.51-6.08-7.31
			c-1.64-2.96-2.97-6.58-1.52-9.64"/>
		<path class="st37" d="M523.43,364.34c-3.29-2.84-6.13-6.2-8.38-9.92"/>
	</g>
	<g>
		<path class="st50" d="M600.65,426.17c-4.48-3.57-10.38-2.38-13.18,2.66c-2.8,5.04-1.44,12.03,3.03,15.6"/>
		<path class="st50" d="M590.51,444.44c4.48,3.57,10.38,2.38,13.18-2.66c2.8-5.04,1.44-12.03-3.03-15.6"/>
	</g>
	<g>
		<g>
			<path class="st43" d="M603.05,411.55c-2.61,24.54-10.27,38.74-33.8,35.33c-17.08-2.48-29.62-15.01-29.7-39.69
				c-0.08-25.19,14.82-42.97,32.08-42.68C599.58,364.97,605.97,384.09,603.05,411.55z"/>
		</g>
		<g>
			<path class="st36" d="M563.38,380.32c3.05,2.63,7.08,3.81,11.05,4.54c4.79,0.88,9.68,1.2,14.54,0.94
				c4.77-0.25,9.72-1.13,13.52-4.02c5.64-4.28,7.49-12.53,5.05-19.17c-2.45-6.64-8.63-11.53-15.48-13.33
				c-6.85-1.8-14.23-0.76-20.78,1.93c-6.55,2.69-12.99,7.09-20.02,6.23c-3.4-0.42-7.16-1.99-9.99-0.07c-1.08,0.73-1.8,1.87-2.45,3
				c-6.81,11.85-8.25,26.66-3.86,39.6c0.16,0.49,0.36,1,0.79,1.28c0.44,0.29,2.3,4.55,2.82,4.46c4.52-0.84,6.41-9.33,8.01-13.63
				c1.6-4.31,2.06-8.97,3.63-13.28c0.8-2.21,4.77-10.03,8.12-9.11C559.69,370.07,560.96,378.24,563.38,380.32z"/>
			<path class="st37" d="M605.25,365.16c-0.3,7.11-5.74,13.69-12.67,15.31c-4.05,0.95-8.32,0.32-12.34-0.75
				c-7.03-1.87-14.33-5.81-16.61-12.72"/>
			<path class="st37" d="M596.56,362.02c0.23,1.29-0.19,2.63-0.94,3.71c-1.88,2.72-5.65,3.64-8.88,2.93c-3.23-0.71-6-2.76-8.42-5.01
				"/>
			<path class="st37" d="M549.55,365.38c-6.23,7.98-9.94,17.9-10.47,28.01"/>
			<path class="st37" d="M540.69,365.58c-2.7,5.15-4.2,10.92-4.36,16.74"/>
		</g>
	</g>
	<g>
		<g>
			<path class="st50" d="M546,397.96c0.58-8.82,8-15.76,16.84-15.76c9.26,0,16.88,7.62,16.88,16.88s-7.62,16.88-16.88,16.88
				c-9.26,0-16.88-7.62-16.88-16.88L546,397.96z"/>
			<path class="st51" d="M546,397.96c0.58-8.82,8-15.76,16.84-15.76c9.26,0,16.88,7.62,16.88,16.88s-7.62,16.88-16.88,16.88
				c-9.26,0-16.88-7.62-16.88-16.88L546,397.96z"/>
		</g>
		<g>
			<path class="st51" d="M610.28,400.88c-1.48,7.45-8.72,12.28-16.17,10.8c-7.45-1.48-12.28-8.72-10.8-16.17
				c1.48-7.45,8.72-12.28,16.17-10.8C606.93,386.19,611.76,393.43,610.28,400.88z"/>
			<path class="st50" d="M610.28,400.88c-1.48,7.45-8.72,12.28-16.17,10.8c-7.45-1.48-12.28-8.72-10.8-16.17
				c1.48-7.45,8.72-12.28,16.17-10.8C606.93,386.19,611.76,393.43,610.28,400.88z"/>
			<path class="st50" d="M582.97,396.98c-0.93-0.73-2.45-0.54-3.18,0.4"/>
		</g>
		<path class="st50" d="M521.98,400.22c2.3-2.34,4.98-0.45,8.26-0.63c5.05-0.28,10.99-2.6,16.04-2.28"/>
	</g>
	<path class="st36" d="M596.21,393.96c-0.55,0.98-1.89,1.18-3.01,1.07c-1.96-0.18-3.87-0.93-5.43-2.14
		c-0.51-0.4-1.02-0.89-1.13-1.53c-0.18-1,0.73-1.95,1.73-2.14c1-0.19,2.02,0.2,2.91,0.69C592.73,390.73,596.76,392.98,596.21,393.96
		z"/>
	<path class="st36" d="M562.41,391.98c-0.88,0.55-1.88,1.46-1.51,2.44c0.3,0.81,1.35,1.02,2.21,1.03c2.34,0.01,4.68-0.55,6.76-1.63
		c0.32-0.16,4.73-2.6,3.75-4.07C572.6,388.22,564.35,390.77,562.41,391.98z"/>
	<path class="st50" d="M537.22,418.46c-4.48-3.57-10.38-2.38-13.18,2.66c-2.8,5.04-1.44,12.03,3.03,15.6"/>
	<g>
		<path class="st52" d="M542.02,404.74c-1.18-4.44-4.85-8.14-9.28-9.34c-3.77-1.03-8.19-0.15-10.8,2.76
			c-2.58,2.87-3.02,7.08-2.57,10.91c0.35,2.95,1.21,5.94,3.09,8.24c1.86,2.27,4.62,3.71,7.49,4.31c5.35,1.11,11.22-0.73,14.99-4.69"
			/>
		<path class="st53" d="M528.42,402.16c4.65,0.19,8.92,3.95,9.68,8.54c-0.53-0.43-1.05-0.87-1.58-1.3
			c-1.29-1.06-2.67-2.16-4.33-2.33c-1.65-0.18-3.56,1.04-3.45,2.7"/>
	</g>
	<path class="st50" d="M527.08,436.72c4.48,3.57,10.38,2.38,13.18-2.66c2.8-5.04,1.44-12.03-3.03-15.6"/>
	<path class="st54" d="M582.15,400.58c-0.58,2.32,0.5,4.82,2.2,6.5c1.7,1.68,3.95,2.69,6.18,3.54c0.11,2.39-1,4.8-2.88,6.27
		c-1.88,1.47-4.49,1.97-6.78,1.29"/>
</g>
<g id="R_Eyes">
	<path class="st55" d="M592.5,400.52c-0.27,1.35-1.59,2.23-2.94,1.96c-1.35-0.27-2.23-1.59-1.96-2.94c0.27-1.35,1.59-2.23,2.94-1.96
		C591.89,397.85,592.77,399.17,592.5,400.52z"/>
</g>
<g id="L_Eyes">
	<path class="st55" d="M573.26,401.15c-0.34,1.69-1.98,2.79-3.68,2.45c-1.69-0.34-2.79-1.98-2.45-3.68
		c0.34-1.69,1.98-2.79,3.68-2.45C572.5,397.81,573.6,399.46,573.26,401.15z"/>
</g>
<g id="Mouth">
	<path class="st1" d="M586.16,426.13c-6.06,8.32-13.19,2.21-13.01-5.24L586.16,426.13z"/>
</g>
<g id="R_Finger">
	<g>
		<g>
			<path class="st43" d="M744.78,505.03c0.43-7.58,4.81-14.38,11.21-18.45l13.11-8.34l18.06-10.41c0,0,6.98-0.41,0.41,6.98
				l-8.89,7.53l29.01-2.89c0,0,9.44,1.77,0.28,4.65L787.31,490l25.59-1.52c0,0,6.98-0.41,4.93,4.38c0,0,4.93,4.38-4.24,7.25
				L788,501.63l21.49,8.06c0,0,2.6,4.51-4.38,4.93l-23.54-3.27c0,0-22.71,10.68-32.43,4.26C745.5,513.2,744.55,509.15,744.78,505.03
				z"/>
		</g>
		<path class="st56" d="M776.5,484.81c0,0,7.67,11.22,6.03,22.99"/>
		<line class="st56" x1="819.06" y1="493.96" x2="781.68" y2="496.61"/>
	</g>
</g>
<g id="L_Leg">
	<g>
		<g>
			<path class="st43" d="M825.37,876.61l57.74,86.64c0,0-32.81,20.91-39.39,14.62c-6.58-6.29-53.95-67.22-53.95-67.22L825.37,876.61
				z"/>
		</g>
		<path class="st46" d="M664.24,789.98l141.37,156.34c0,0,22.31-13.12,31.92-25.74c6.77-8.89,14.39-22.82,14.39-22.82
			s-82.07-138.89-120.47-185.63c-9.51-11.58-12.18-10.78-15.59-12.12C698.71,693.22,614.06,727.86,664.24,789.98z"/>
		<path class="st47" d="M684.7,767.55c46.73,45.73,88.51,102.36,130.89,152.59"/>
	</g>
</g>
<g id="L_Foot">
	<g>
		<path class="st43" d="M844.81,961.75c0.28,10.99,1.27,23.56,9.56,30.52c2.45,2.05,5.33,3.4,8.18,4.73
			c7.74,3.61,15.48,7.22,23.22,10.83c3.98,1.86,8.09,3.75,12.39,3.9c3.21,0.12,6.35-0.75,9.41-1.66
			c11.07-3.28,22.6-7.71,29.38-17.39c0.41-0.59,0.82-1.25,0.84-1.99c0.03-1.82-2.08-2.78-3.78-3.11
			c-5.66-1.07-11.45-0.82-17.09-2.04c-16.82-3.63-28.91-19.11-42.97-29.82c-1.2-0.92-2.52-1.84-3.98-1.91
			c-1.09-0.05-2.12,0.37-3.12,0.79c-4.78,2-9.57,4-14.35,6.01"/>
		<path class="st44" d="M884.38,1033.39c-0.76-1.35-14.19-22.21-18.98-24.76c-4.79-2.54-14.11-4.17-14.11-4.17l-15.44-27.5
			c0,0,30.99,16.33,37.04,18.12s20.92,7.31,29.21,4.13s19.81-15.54,19.81-15.54s25.94,4.29,27.46,7c1.52,2.7-0.72,7.67-0.72,7.67
			l-50.73,23.28L880,1010.7l10.65,18.92L884.38,1033.39z"/>
	</g>
</g>
<g id="Body">
	<g>
		<path class="st57" d="M534.02,499.33l12.27-4.07c0,0,5.57-3.44,4.73-7.94c-0.85-4.51,6.45-22.75,6.45-22.75
			s47.56,15.61,49.13,24.64c1.56,8.98,5.33,67.87,2.87,75.3c-3.91,11.85-8.81,24.4-12.44,33.55c-1.77,4.45-3.22,20.96-3.95,23.46
			c-3.26,11.09,2.6,22.8-1.95,32.42c-2.37,5-65.21,14.85-90.7,9.94c-25.53-4.92-42.63-13.68-40.1-20.38
			c3.92-10.38,15.06-40.48,16.72-49.73c1.67-9.3-25.62-67.61-28.71-76.52c-3.11-8.96,7.93-38.76,21.2-44.45
			c13.31-5.71,47.97-16.9,47.97-16.9L534.02,499.33z"/>
		<path class="st41" d="M596.36,508.78c6.17,11.79,15.8,45.51,13.12,55.73c-2.44,9.3-6.37,21.05-12.29,31.85
			c0,0-6.7,25.65-3.17,36.91c3.51,11.19,2.99,16.96-3.87,21.42"/>
		<path class="st58" d="M477.5,530.16l-2.95,70.69l-9.51,29.49c0,0-5.49,10.08-4.85,16.19c0.54,5.14,6.97,6.43,8.87,7.48
			c1.34,0.74,6.04-18,7.55-17.19c6.2,3.32,13.23,6.84,16.62,7.62c26,5.98,48.54,2.63,60.77-0.29c1.61-0.38,7.65,17.95,8.88,17.6
			c1.59-0.45,25.45-4.97,29.33-9.37c10.3-11.7,2.51-28.2,2.51-28.2s-62.08,5.91-75.24-17.78c-3.06-5.5,6.4-36.82,2.86-42.28
			C509.87,544.87,479.35,533.45,477.5,530.16z"/>
		<path class="st42" d="M469.75,617.76c-2.91,7.94-5.81,15.84-8.69,23.71c-0.48,1.31-0.96,2.68-0.7,4.06
			c0.32,1.67,1.68,3.05,3.06,4.23c9.86,8.43,23.53,12.08,36.8,13.74c19.45,2.42,40.88,3.99,59.66-0.84"/>
		<g>
			<path class="st43" d="M549.34,460.12c0,0-22.04-7.69-31.82-4.23c-9.76,3.45-36.19,12.34-36.19,12.34s34.23,21.85,52.68,31.1
				c18.37,9.22,34.39-8.1,38.18-10.55c3.8-2.45,10.57-15.64,10.57-15.64L549.34,460.12z"/>
		</g>
	</g>
	<path class="st38" d="M511.79,491.57c10.93,31.65,11.69,65.76,13.11,99.21c1.13,26.68-2.01,62.9,22.16,80.8
		c10.11,7.49,22.42,11.3,34.58,14.53c12.16,3.23,24.59,6.07,35.69,11.99c-12.35-5.41-26.52-6.55-39.58-3.17
		c-6.91,1.79-13.56,4.84-19.09,9.36c-12.04,9.84-17.59,25.29-24.66,39.14c-3.36,6.57-7.16,12.92-11.38,18.98
		c-2.02,2.9-4.23,5.83-7.3,7.57c-3.49,1.98-7.67,2.21-11.68,2.39c-14.96,0.68-30.75,1.19-43.99-5.82
		c-12.55-6.64-21.29-19.98-22.37-34.13c-1.32-17.32,6.89-35.4,10.44-52.18c3.91-18.49,7.52-37.16,7.76-56.12
		c0.41-32.65-9.13-64.81-8.86-97.47c0.13-15.08,0.93-29.92,8.86-42.74c6.17-9.97,20.14-21.72,32.64-21.93
		C501.06,461.78,508.25,481.32,511.79,491.57z"/>
	<path class="st38" d="M579.37,496.64c2.76,28.05-0.31,56.31-1.15,84.49c-0.84,28.18-0.37,51.61,11.02,77.4
		c2.26,5.11,6.04,7.88,9.75,12.05c5.02,5.65,11.73,6.2,18.59,9.37c25.46,11.75,74.15-1.64,101.42-8.16
		c-18.69-11.54-52.63-5.77-70.21-18.94c-14.96-11.21-21.17-5.32-29.42-22.09c-1.11-2.25-9.9-13.55-9.97-16.05
		c-0.08-2.78-2.35-5.45-1.26-8.01c5.75-13.48,11.76-26.91,12.36-41.55c0.25-6.06-0.65-12.1-1.54-18.09
		c-2.35-15.79-7.93-26.96-10.28-42.74c-0.68-4.57,1.4-13.72-0.71-17.84c-2.68-5.21-6.95-9.21-11.9-12.34
		c-5.41-3.41-27.17-12.06-33.28-8.56C567.6,475.88,578.23,485.11,579.37,496.64z"/>
</g>
<g id="L_Arm">
	<g>
		<path class="st38" d="M444.94,576.61c2.55,13.67,3.33,40.4,15.53,50.6c3.43,2.87,11.44-6.92,16.09-6.12
			c4.67,0.8,9.31-0.24,13.32-1.86c10.57-4.26,18.24-13.37,17.04-23.47c-0.4-3.36-7.3-20.49-9.64-25.74
			c-2.38-5.32-2.94-52.08-1.95-64c0.35-4.18-8.9-10.22-9.31-14.48c-0.34-3.45-1.51-10.39-4.87-13.04
			c-3.34-2.64-8.29-3.95-11.68-2.89C431,487.66,441.88,560.2,444.94,576.61z"/>
		<path class="st40" d="M493.37,512.54c4.04,28.22,0.1,51,12.24,77.4"/>
	</g>
</g>
<g id="L_Hand">
	<g>
		<path class="st39" d="M572.78,616.43c0,0,47.12,8.67,48.27,9.02c10.42,3.2,9.21,24.76-2.55,24.94
			c-2.39,0.04-40.82-0.49-42.23-0.75C561.74,646.96,572.78,616.43,572.78,616.43z"/>
		<path class="st38" d="M590.21,618.07c1.74,0.67,0.99-0.67,1.97,0.81c0.66,1.01-5.3,21.53-6.42,31.9c-0.07,0.62,7.79-0.07,7.22,0.3
			c-0.5,0.33-1.18,0.4-1.83,0.45c-5.86,0.47-11.82,0.25-17.77-0.02c-16.84-0.76-33.68-1.89-50.53-3.38
			c-14.2-1.26-27.56-3.07-40.96-8c-13.4-4.93-24.99-15.47-30.2-27.06c-1.41-3.14-1.49-22.67,5.14-27.01
			c14.25-9.34,34.49-7.21,45.52,1.92c6.05,5.01,13.51,6.56,21.2,8.58c10.6,2.79,21.12,5.85,31.54,9.17
			C566.93,609.51,578.64,613.62,590.21,618.07z"/>
		<path class="st40" d="M482.28,603.87c5.54-4.56,17.5-8.97,25.56-10.05c-6.49,3.63-12.89,11.82-13.63,18.44"/>
		<path class="st40" d="M508.88,594.08c0,0,62.87,18,82.04,25.3"/>
		<path class="st40" d="M457.76,623.67c8.95,12.4,36.23,20.03,43.78,21.25c27.01,4.36,56.8,7.93,83.61,7.02"/>
		<path class="st41" d="M592.44,619.21c-2.22,7.27-5.74,24.05-6.46,31.64"/>
	</g>
</g>
<g id="l_Finge_r">
	<g>
		<g>
			<path class="st43" d="M603.95,653.99c0,0,9.73,0.69,15.39,5.15l27.46,16.85c0,0,4.29,1.54,0.91-4.42l8.18,6.62
				c0,0,6.57,0.04,1.93-6.18c0,0,0.56,0.96,1.49,2c2.37,2.61,6.68,0.36,5.97-3.09l0,0c6.57,0.04,0.8-7.08,0.8-7.08l-17.66-29.31
				l-7.06-4.09l13.56-5.11c8.38-5.51-0.33-7.97-0.33-7.97s-31.63,3.36-36.94,3.58c0,0-23.49,1.89-27.21,15.09
				C586.74,649.23,603.95,653.99,603.95,653.99z"/>
		</g>
		<line class="st59" x1="630.5" y1="652.88" x2="649.79" y2="673.24"/>
		<line class="st59" x1="643.04" y1="649.54" x2="658.21" y2="671.75"/>
		<line class="st59" x1="648.37" y1="646.03" x2="665.67" y2="670.66"/>
	</g>
</g>
<g id="Laptop">
	<g>
		<rect x="509.55" y="674.73" class="st60" width="224.18" height="11.24"/>
		<g>
			<path class="st60" d="M734.54,677.54H573.6l40.16-106.34c4.08-10.81,14.43-17.96,25.98-17.96h127.9c6.69,0,11.32,6.69,8.96,12.96
				L734.54,677.54z"/>
			
				<ellipse transform="matrix(0.7615 -0.6481 0.6481 0.7615 -239.4925 588.0156)" class="st61" cx="679.32" cy="619.46" rx="15.17" ry="11.43"/>
		</g>
	</g>
</g>
</svg>
